#!OML:ASF H:\MichaelJackson\Top Level 1\Subject 1\Session 1\male.ASF
:FULLY-SPECIFIED
:DEGREES
297
root 1.65162 15.3978 -16.877 10.6073 -14.2194 -0.41678
lowerback 0.495789 -0.59275 6.0652
upperback -0.979577 -0.750073 -2.28313
thorax -1.40111 -0.453904 -5.76608
lowerneck -8.03179 4.2343 8.80677
upperneck -0.0567457 4.92254 -4.39656
head 1.75694 2.37958 -2.77543
rclavicle -3.58309e-014 3.57812e-015
rhumerus 0.347192 24.8049 5.37744
rradius 94.2172
rwrist 2.23584
rhand -43.0454 -17.6483
rfingers 7.12502
rthumb -15.902 312.985
lclavicle -3.58309e-014 3.57812e-015
lhumerus -56.0864 -18.1881 96.6797
lradius 56.8043
lwrist 27.1122
lhand -17.1458 3.1026
lfingers 7.12502
lthumb 9.09462 32.8865
rfemur -39.8549 -5.69543 3.77482
rtibia 55.2034
rfoot -21.9151 -9.55959
rtoes -30.8051
lfemur -5.7133 -4.04463 5.53201
ltibia 27.7874
lfoot -3.42513 27.5575
ltoes -33.0942
298
root 1.54654 15.4523 -16.8906 10.6068 -14.1074 -0.992548
lowerback 0.820252 -0.506829 6.37775
upperback -0.781144 -0.613595 -2.20217
thorax -1.36144 -0.380788 -5.86062
lowerneck -7.95424 4.17464 8.96005
upperneck -0.10976 4.82935 -4.20008
head 1.7165 2.33751 -2.74291
rclavicle -1.61016e-014 1.63003e-014
rhumerus -0.482287 26.8286 4.33743
rradius 96.4592
rwrist 5.62521
rhand -42.9205 -11.0264
rfingers 7.12502
rthumb -15.7818 319.597
lclavicle -1.61016e-014 1.63003e-014
lhumerus -55.7327 -16.9914 95.1305
lradius 56.4895
lwrist 29.3492
lhand -21.7838 2.79254
lfingers 7.12502
lthumb 4.61758 32.7222
rfemur -39.362 -4.03979 4.61173
rtibia 54.7418
rfoot -21.3623 -10.9503
rtoes -30.2239
lfemur -7.07199 -2.67795 6.30775
ltibia 29.9196
lfoot -1.2265 27.2069
ltoes -32.4094
299
root 1.43835 15.5086 -16.9053 10.5373 -13.7815 -1.52515
lowerback 1.18037 -0.450296 6.60272
upperback -0.56748 -0.514359 -2.12327
thorax -1.32948 -0.324994 -5.90693
lowerneck -7.95156 4.07062 9.02736
upperneck -0.0442118 4.67684 -3.90423
head 1.71811 2.26895 -2.66229
rclavicle 2.98177e-015 -2.0276e-014
rhumerus -1.53777 28.7272 2.67729
rradius 98.226
rwrist 8.75607
rhand -42.8612 -6.20318
rfingers 7.12502
rthumb -15.7247 324.416
lclavicle 2.98177e-015 -2.0276e-014
lhumerus -55.2385 -15.9745 93.7422
lradius 55.9264
lwrist 31.46
lhand -26.6094 2.23121
lfingers 7.12502
lthumb -0.042796 32.211
rfemur -38.7361 -2.67268 5.4822
rtibia 54.2691
rfoot -20.8447 -12.2591
rtoes -29.5916
lfemur -8.63935 -1.33041 7.05829
ltibia 32.2268
lfoot 1.00059 26.8246
ltoes -31.2281
300
root 1.32843 15.5655 -16.92 10.3961 -13.2421 -1.98858
lowerback 1.57458 -0.417896 6.73785
upperback -0.345461 -0.445998 -2.05463
thorax -1.31134 -0.284035 -5.91232
lowerneck -8.01917 3.91465 8.99961
upperneck 0.122513 4.45512 -3.51996
head 1.75536 2.16903 -2.53667
rclavicle -3.6477e-014 -6.75868e-015
rhumerus -2.90816 30.472 0.37002
rradius 99.5197
rwrist 11.5568
rhand -42.9968 -3.22057
rfingers 7.12502
rthumb -15.8553 327.409
lclavicle -3.6477e-014 -6.75868e-015
lhumerus -54.5904 -15.1295 92.5151
lradius 55.0891
lwrist 33.1849
lhand -31.3395 1.4389
lfingers 7.12502
lthumb -4.61098 31.3687
rfemur -37.9836 -1.64609 6.35606
rtibia 53.7789
rfoot -20.3679 -13.4532
rtoes -28.957
lfemur -10.4195 -0.00193963 7.72192
ltibia 34.6964
lfoot 3.09949 26.5592
ltoes -29.3333
301
root 1.21789 15.6232 -16.9346 10.1966 -12.4755 -2.36633
lowerback 1.99057 -0.408646 6.78487
upperback -0.120681 -0.408587 -1.99714
thorax -1.30638 -0.258341 -5.87861
lowerneck -8.13753 3.69869 8.87054
upperneck 0.352763 4.1555 -3.06758
head 1.81342 2.03292 -2.37323
rclavicle 2.98177e-016 5.96354e-015
rhumerus -4.68008 31.9694 -2.58666
rradius 100.371
rwrist 13.9383
rhand -43.4584 -1.82991
rfingers 7.12502
rthumb -16.2997 328.835
lclavicle 2.98177e-016 5.96354e-015
lhumerus -53.7805 -14.4225 91.4383
lradius 53.9734
lwrist 34.2778
lhand -35.7144 0.575313
lfingers 7.12502
lthumb -8.83422 30.3704
rfemur -37.1197 -1.01989 7.21213
rtibia 53.2656
rfoot -19.9725 -14.4829
rtoes -28.3128
lfemur -12.4399 1.28127 8.25161
ltibia 37.3043
lfoot 4.82947 26.5985
ltoes -26.2016
302
root 1.1085 15.6801 -16.9486 9.96707 -11.5292 -2.67728
lowerback 2.40615 -0.410148 6.76671
upperback 0.109803 -0.387147 -1.93548
thorax -1.29709 -0.239935 -5.80311
lowerneck -8.30981 3.42823 8.62875
upperneck 0.609664 3.78713 -2.58308
head 1.8837 1.86386 -2.18235
rclavicle -4.1546e-014 7.95139e-015
rhumerus -6.84877 33.0847 -6.14301
rradius 100.762
rwrist 15.9909
rhand -44.2134 -1.70546
rfingers 7.12502
rthumb -17.0266 329.021
lclavicle -4.1546e-014 7.95139e-015
lhumerus -52.7965 -13.765 90.4894
lradius 52.5994
lwrist 34.5196
lhand -39.5321 -0.0859914
lfingers 7.12502
lthumb -12.5167 29.5191
rfemur -36.1919 -0.791392 8.05028
rtibia 52.7257
rfoot -19.6724 -15.307
rtoes -27.6747
lfemur -14.6784 2.54304 8.6197
ltibia 40.0127
lfoot 5.95583 27.1019
ltoes -20.9412
303
root 1.00144 15.7356 -16.9614 9.72007 -10.4304 -2.94414
lowerback 2.82295 -0.414405 6.72117
upperback 0.339391 -0.370177 -1.86624
thorax -1.28985 -0.223853 -5.7041
lowerneck -8.49553 3.10561 8.29052
upperneck 0.848333 3.35707 -2.09398
head 1.94742 1.66408 -1.97688
rclavicle 2.68359e-015 -1.59028e-014
rhumerus -9.41565 33.6496 -10.2406
rradius 100.738
rwrist 17.6916
rhand -45.2535 -2.32173
rfingers 7.12502
rthumb -18.0276 328.494
lclavicle 2.68359e-015 -1.59028e-014
lhumerus -51.6682 -13.0948 89.6337
lradius 51.0102
lwrist 33.7947
lhand -42.5897 -0.0104842
lfingers 7.12502
lthumb -15.4632 29.391
rfemur -35.2209 -0.958756 8.88174
rtibia 52.1543
rfoot -19.4683 -15.9119
rtoes -27.0551
lfemur -17.1001 3.78143 8.81785
ltibia 42.7751
lfoot 6.33417 28.0284
ltoes -12.6359
304
root 0.897947 15.79 -16.9716 9.46275 -9.25467 -3.19849
lowerback 3.24024 -0.401766 6.68766
upperback 0.561742 -0.330176 -1.78398
thorax -1.28697 -0.19683 -5.5996
lowerneck -8.65391 2.73594 7.86781
upperneck 1.0392 2.8766 -1.62295
head 1.9904 1.43796 -1.76649
rclavicle -3.57812e-015 -1.27222e-014
rhumerus -12.2934 33.5023 -14.7545
rradius 100.318
rwrist 19.1818
rhand -46.4345 -3.18416
rfingers 7.12502
rthumb -19.1635 327.74
lclavicle -3.57812e-015 -1.27222e-014
lhumerus -50.4605 -12.3449 88.8504
lradius 49.2882
lwrist 32.0715
lhand -44.8852 1.20405
lfingers 7.12502
lthumb -17.6732 30.4209
rfemur -34.2275 -1.46208 9.71682
rtibia 51.5451
rfoot -19.3516 -16.2888
rtoes -26.4782
lfemur -19.6273 5.00039 8.84978
ltibia 45.5383
lfoot 5.9043 29.1809
ltoes -0.981912
305
root 0.798608 15.8429 -16.9789 9.21114 -8.05175 -3.46838
lowerback 3.64774 -0.367254 6.69092
upperback 0.775977 -0.259943 -1.67894
thorax -1.28273 -0.155127 -5.49406
lowerneck -8.77388 2.33532 7.36942
upperneck 1.16397 2.36858 -1.18362
head 2.00742 1.19584 -1.55603
rclavicle 1.07344e-014 1.03368e-014
rhumerus -15.2901 32.4895 -19.4931
rradius 99.52
rwrist 20.5949
rhand -47.6302 -3.9913
rfingers 7.12502
rthumb -20.3131 327.051
lclavicle 1.07344e-014 1.03368e-014
lhumerus -49.2222 -11.4423 88.1116
lradius 47.5225
lwrist 29.4985
lhand -46.2886 3.57333
lfingers 7.12502
lthumb -19.0233 32.663
rfemur -33.2331 -2.23592 10.5656
rtibia 50.8932
rfoot -19.3047 -16.4498
rtoes -25.9252
lfemur -22.21 6.20697 8.73918
ltibia 48.2497
lfoot 4.95819 30.189
ltoes 12.4764
306
root 0.703523 15.8947 -16.983 8.96384 -6.8748 -3.77474
lowerback 4.04546 -0.304157 6.74253
upperback 0.980457 -0.149536 -1.54564
thorax -1.27745 -0.0938131 -5.38912
lowerneck -8.83187 1.91526 6.81394
upperneck 1.2131 1.84903 -0.786703
head 1.99309 0.945082 -1.35131
rclavicle -2.48481e-015 1.19271e-014
rhumerus -18.2248 30.5404 -24.2532
rradius 98.4107
rwrist 22.0611
rhand -48.7453 -4.83566
rfingers 7.12502
rthumb -21.3844 326.324
lclavicle -2.48481e-015 1.19271e-014
lhumerus -48.0169 -10.3532 87.414
lradius 45.7995
lwrist 26.3129
lhand -46.7946 6.69003
lfingers 7.12502
lthumb -19.5098 35.7312
rfemur -32.2475 -3.19342 11.4356
rtibia 50.1971
rfoot -19.2942 -16.4445
rtoes -25.498
lfemur -24.7819 7.41206 8.51081
ltibia 50.8647
lfoot 3.99793 30.724
ltoes 24.5331
307
root 0.612636 15.9448 -16.9835 8.7152 -5.77415 -4.11678
lowerback 4.4524 -0.204115 6.84616
upperback 1.16133 0.0143743 -1.39745
thorax -1.29425 -0.00744175 -5.30208
lowerneck -8.8105 1.48371 6.2194
upperneck 1.19718 1.32656 -0.415816
head 1.94858 0.690587 -1.14933
rclavicle -9.74045e-015 0
rhumerus -20.9724 27.6813 -28.8716
rradius 97.0764
rwrist 23.6088
rhand -49.6718 -6.06349
rfingers 7.12502
rthumb -22.274 325.2
lclavicle -9.74045e-015 0
lhumerus -46.9376 -9.1123 86.7665
lradius 44.2189
lwrist 22.8518
lhand -46.56 10.0066
lfingers 7.12502
lthumb -19.2842 39.0704
rfemur -31.2761 -4.251 12.3129
rtibia 49.4642
rfoot -19.303 -16.312
rtoes -25.214
lfemur -27.2782 8.62817 8.17697
ltibia 53.3511
lfoot 3.51077 30.5858
ltoes 33.0817
308
root 0.525379 15.9928 -16.9807 8.46332 -4.77443 -4.48368
lowerback 4.87064 -0.0618588 6.98763
upperback 1.31497 0.238912 -1.24512
thorax -1.33683 0.10735 -5.23721
lowerneck -8.70906 1.04356 5.6067
upperneck 1.12946 0.801072 -0.0627859
head 1.8787 0.432847 -0.950715
rclavicle 3.8763e-015 7.95139e-016
rhumerus -23.4513 23.9879 -33.2377
rradius 95.596
rwrist 25.0994
rhand -50.2995 -8.07204
rfingers 7.12502
rthumb -22.8765 323.265
lclavicle 3.8763e-015 7.95139e-016
lhumerus -46.0367 -7.78526 86.1827
lradius 42.8718
lwrist 19.5053
lhand -45.7177 12.9605
lfingers 7.12502
lthumb -18.4742 42.1032
rfemur -30.3258 -5.33225 13.1792
rtibia 48.7118
rfoot -19.3225 -16.1059
rtoes -25.0436
lfemur -29.665 9.85486 7.74529
ltibia 55.6902
lfoot 3.73121 29.7
ltoes 37.9625
309
root 0.441032 16.0384 -16.9751 8.20978 -3.87816 -4.86095
lowerback 5.29908 0.117033 7.13994
upperback 1.44839 0.51555 -1.08827
thorax -1.39844 0.246755 -5.179
lowerneck -8.56959 0.603405 4.98714
upperneck 1.03363 0.278641 0.267357
head 1.79946 0.175307 -0.758553
rclavicle 1.28216e-014 -2.74323e-014
rhumerus -25.5998 19.5778 -37.2618
rradius 94.0519
rwrist 26.2172
rhand -50.4979 -11.1557
rfingers 7.12502
rthumb -23.0669 320.205
lclavicle 1.28216e-014 -2.74323e-014
lhumerus -45.33 -6.44134 85.6924
lradius 41.8162
lwrist 16.6385
lhand -44.429 15.2229
lfingers 7.12502
lthumb -17.2341 44.4787
rfemur -29.4045 -6.38196 14.019
rtibia 47.9612
rfoot -19.3475 -15.8845
rtoes -24.9639
lfemur -31.9328 11.0766 7.22185
ltibia 57.8705
lfoot 4.42963 28.1867
ltoes 40.3085
310
root 0.359214 16.0802 -16.9671 7.9605 -3.08841 -5.23145
lowerback 5.73537 0.325428 7.27704
upperback 1.5692 0.833169 -0.924976
thorax -1.47181 0.405677 -5.11059
lowerneck -8.4421 0.172038 4.36183
upperneck 0.933926 -0.232814 0.567469
head 1.7279 -0.0776473 -0.575057
rclavicle -1.3418e-014 -1.86858e-014
rhumerus -27.3894 14.632 -40.9057
rradius 92.5029
rwrist 26.4979
rhand -50.0905 -15.2309
rfingers 7.12502
rthumb -22.676 316.081
lclavicle -1.3418e-014 -1.86858e-014
lhumerus -44.8176 -5.14128 85.3278
lradius 41.0831
lwrist 14.5345
lhand -42.8844 16.7223
lfingers 7.12502
lthumb -15.747 46.1016
rfemur -28.5291 -7.3545 14.814
rtibia 47.2376
rfoot -19.3766 -15.6935
rtoes -24.9339
lfemur -34.0719 12.2892 6.60271
ltibia 59.8899
lfoot 5.28659 26.1465
ltoes 40.6601
